<svg width="21" height="20" viewBox="0 0 21 20" fill="none" xmlns="http://www.w3.org/2000/svg">
<path d="M11.3339 7.5L13.8339 10L11.3339 7.5ZM13.8339 10L11.3339 12.5L13.8339 10ZM13.8339 10H7.16728H13.8339ZM18.0006 10C18.0006 10.9849 17.8066 11.9602 17.4297 12.8701C17.0528 13.7801 16.5003 14.6069 15.8039 15.3033C15.1075 15.9997 14.2807 16.5522 13.3707 16.9291C12.4608 17.306 11.4855 17.5 10.5006 17.5C9.5157 17.5 8.54043 17.306 7.63048 16.9291C6.72054 16.5522 5.89375 15.9997 5.19731 15.3033C4.50087 14.6069 3.94842 13.7801 3.57151 12.8701C3.1946 11.9602 3.00061 10.9849 3.00061 10C3.00061 8.01088 3.79079 6.10322 5.19731 4.6967C6.60383 3.29018 8.51149 2.5 10.5006 2.5C12.4897 2.5 14.3974 3.29018 15.8039 4.6967C17.2104 6.10322 18.0006 8.01088 18.0006 10Z" stroke="#4EA3E4" stroke-width="2" stroke-linecap="round" stroke-linejoin="round"/>
</svg>
