<svg width="24" height="25" viewBox="0 0 24 25" fill="none" xmlns="http://www.w3.org/2000/svg">
<rect y="0.5" width="23" height="23" rx="11.5" fill="#999999"/>
<path fill-rule="evenodd" clip-rule="evenodd" d="M6.81212 5.66065C7.8172 5.06505 9.33845 4.49661 11.4625 4.49661C13.5865 4.49661 15.1077 5.06505 16.1128 5.66065C16.6126 5.95684 16.9796 6.25659 17.227 6.48941C17.3507 6.60584 17.4446 6.70567 17.5105 6.78022C17.5435 6.8175 17.5695 6.8485 17.5887 6.87214C17.5983 6.88397 17.6062 6.89395 17.6124 6.90197L17.6206 6.9125L17.6237 6.91663L17.6251 6.91841L17.6257 6.91922C17.626 6.91961 17.6263 6.91998 16.9941 7.39412L17.6263 6.91998C17.7288 7.05677 17.7843 7.22314 17.7843 7.39412V16.3501C17.7843 16.521 17.7288 16.6874 17.6263 16.8242L16.9941 16.3501C17.6263 16.8242 17.626 16.8246 17.6257 16.825L17.6251 16.8258L17.6237 16.8276L17.6206 16.8317L17.6124 16.8422C17.6062 16.8502 17.5983 16.8602 17.5887 16.872C17.5695 16.8957 17.5435 16.9267 17.5105 16.964C17.4446 17.0385 17.3507 17.1383 17.227 17.2548C16.9796 17.4876 16.6126 17.7874 16.1128 18.0835C15.1077 18.6791 13.5865 19.2476 11.4625 19.2476C9.33845 19.2476 7.8172 18.6791 6.81212 18.0835C6.31231 17.7874 5.94532 17.4876 5.69794 17.2548C5.57425 17.1383 5.4803 17.0385 5.4144 16.964C5.38144 16.9267 5.35547 16.8957 5.33626 16.872C5.32666 16.8602 5.31874 16.8502 5.31248 16.8422L5.30434 16.8317L5.3012 16.8276L5.29986 16.8258L5.29925 16.825C5.29896 16.8246 5.29867 16.8242 5.93086 16.3501L5.29867 16.8242C5.19608 16.6874 5.14062 16.521 5.14062 16.3501V7.39412C5.14062 7.22314 5.19608 7.05677 5.29867 6.91998L5.93086 7.39412C5.29867 6.91998 5.29896 6.91961 5.29925 6.91922L5.29986 6.91841L5.3012 6.91663L5.30434 6.9125L5.31248 6.90197C5.31874 6.89395 5.32666 6.88397 5.33626 6.87214C5.35547 6.8485 5.38144 6.8175 5.4144 6.78022C5.4803 6.70567 5.57425 6.60584 5.69794 6.48941C5.94532 6.25659 6.31231 5.95684 6.81212 5.66065ZM6.72109 7.69818V16.046C6.73949 16.0642 6.7595 16.0835 6.78113 16.1039C6.95356 16.2662 7.22864 16.4932 7.61784 16.7239C8.39077 17.1819 9.63533 17.6671 11.4625 17.6671C13.2896 17.6671 14.5342 17.1819 15.3071 16.7239C15.6963 16.4932 15.9714 16.2662 16.1438 16.1039C16.1654 16.0835 16.1854 16.0642 16.2038 16.046V7.69818C16.1854 7.68 16.1654 7.66067 16.1438 7.64031C15.9714 7.47802 15.6963 7.25095 15.3071 7.02031C14.5342 6.56228 13.2896 6.07707 11.4625 6.07707C9.63533 6.07707 8.39077 6.56228 7.61784 7.02031C7.22864 7.25095 6.95356 7.47802 6.78113 7.64031C6.7595 7.66067 6.73949 7.68 6.72109 7.69818Z" fill="white"/>
<path fill-rule="evenodd" clip-rule="evenodd" d="M6.55911 7.44156C6.29624 7.09696 5.80415 7.02823 5.45676 7.28877C5.10762 7.55063 5.03686 8.04595 5.29872 8.39509L5.9309 7.92095C5.29872 8.39509 5.29872 8.39509 5.29872 8.39509L5.29991 8.39667L5.30125 8.39845L5.30439 8.40257L5.31253 8.41311C5.31879 8.42112 5.3267 8.43111 5.33631 8.44293C5.35551 8.46657 5.38149 8.49757 5.41445 8.53486C5.48034 8.60941 5.57429 8.70924 5.69799 8.82566C5.94537 9.05849 6.31236 9.35824 6.81216 9.65442C7.81725 10.25 9.3385 10.8185 11.4625 10.8185C13.5865 10.8185 15.1078 10.25 16.1129 9.65442C16.6127 9.35824 16.9797 9.05849 17.227 8.82566C17.3507 8.70924 17.4447 8.60941 17.5106 8.53486C17.5435 8.49757 17.5695 8.46657 17.5887 8.44293C17.5983 8.43111 17.6062 8.42112 17.6125 8.41311L17.6206 8.40257L17.6238 8.39845L17.6251 8.39667L17.6257 8.39586C17.6257 8.39586 17.6263 8.39509 16.9941 7.92095L17.6257 8.39586C17.8876 8.04671 17.8174 7.55063 17.4683 7.28877C17.1209 7.02823 16.6288 7.09696 16.3659 7.44155C16.3659 7.44155 16.364 7.44398 16.3621 7.44631C16.3562 7.45353 16.3444 7.46781 16.3264 7.48814C16.2904 7.52884 16.2301 7.59363 16.1438 7.67477C15.9714 7.83706 15.6963 8.06413 15.3071 8.29476C14.5342 8.7528 13.2897 9.238 11.4625 9.238C9.63537 9.238 8.39082 8.7528 7.61789 8.29476C7.22868 8.06413 6.95361 7.83706 6.78118 7.67477C6.69497 7.59363 6.63458 7.52884 6.59861 7.48814C6.58064 7.46781 6.5688 7.45353 6.56292 7.44631C6.56104 7.44399 6.55911 7.44156 6.55911 7.44156Z" fill="white"/>
<path fill-rule="evenodd" clip-rule="evenodd" d="M6.55911 11.661C6.29624 11.3165 5.80415 11.2477 5.45676 11.5083C5.10762 11.7701 5.03686 12.2654 5.29872 12.6146L5.9309 12.1404C5.29872 12.6146 5.29872 12.6146 5.29872 12.6146L5.29991 12.6162L5.30125 12.6179L5.30439 12.6221L5.31253 12.6326C5.31879 12.6406 5.3267 12.6506 5.33631 12.6624C5.35551 12.6861 5.38149 12.7171 5.41445 12.7543C5.48034 12.8289 5.57429 12.9287 5.69799 13.0452C5.94537 13.278 6.31236 13.5777 6.81216 13.8739C7.81725 14.4695 9.3385 15.038 11.4625 15.038C13.5865 15.038 15.1078 14.4695 16.1129 13.8739C16.6127 13.5777 16.9797 13.278 17.227 13.0452C17.3507 12.9287 17.4447 12.8289 17.5106 12.7543C17.5435 12.7171 17.5695 12.6861 17.5887 12.6624C17.5983 12.6506 17.6062 12.6406 17.6125 12.6326L17.6206 12.6221L17.6238 12.6179L17.6251 12.6162L17.6257 12.6153C17.6257 12.6153 17.6263 12.6146 16.9941 12.1404L17.6257 12.6153C17.8876 12.2662 17.8174 11.7701 17.4683 11.5083C17.1209 11.2477 16.6288 11.3165 16.3659 11.661C16.3659 11.661 16.364 11.6635 16.3621 11.6658C16.3562 11.673 16.3444 11.6873 16.3264 11.7076C16.2904 11.7483 16.2301 11.8131 16.1438 11.8943C15.9714 12.0565 15.6963 12.2836 15.3071 12.5143C14.5342 12.9723 13.2897 13.4575 11.4625 13.4575C9.63537 13.4575 8.39082 12.9723 7.61789 12.5143C7.22868 12.2836 6.95361 12.0565 6.78118 11.8943C6.69497 11.8131 6.63458 11.7483 6.59861 11.7076C6.58064 11.6873 6.5688 11.673 6.56292 11.6658C6.56104 11.6635 6.55911 11.661 6.55911 11.661Z" fill="white"/>
</svg>
