<svg width="32" height="23" viewBox="0 0 32 23" fill="none" xmlns="http://www.w3.org/2000/svg">
<path fill-rule="evenodd" clip-rule="evenodd" d="M3.85431 11.5C3.95456 11.6719 4.07403 11.8695 4.21283 12.0873C4.73862 12.9123 5.5312 14.0115 6.59342 15.1059C8.72369 17.3008 11.8303 19.375 15.9997 19.375C20.1691 19.375 23.2757 17.3008 25.406 15.1059C26.4682 14.0115 27.2608 12.9123 27.7865 12.0873C27.9253 11.8695 28.0448 11.6719 28.1451 11.5C28.0448 11.3281 27.9253 11.1305 27.7865 10.9127C27.2608 10.0877 26.4682 8.98845 25.406 7.89405C23.2757 5.69923 20.1691 3.625 15.9997 3.625C11.8303 3.625 8.72369 5.69923 6.59342 7.89405C5.5312 8.98845 4.73862 10.0877 4.21283 10.9127C4.07403 11.1305 3.95456 11.3281 3.85431 11.5ZM30.0622 11.5C31.5891 10.7815 31.5888 10.7808 31.5884 10.7801L31.5859 10.7748L31.5811 10.7647L31.5663 10.7341C31.5542 10.7092 31.5375 10.6753 31.5163 10.6332C31.4738 10.549 31.413 10.4313 31.3337 10.285C31.1753 9.9926 30.9421 9.58442 30.6328 9.09898C30.016 8.13109 29.0859 6.83967 27.8278 5.54345C25.3174 2.95702 21.3928 0.25 15.9997 0.25C10.6066 0.25 6.68194 2.95702 4.17158 5.54345C2.91348 6.83967 1.98341 8.13109 1.36662 9.09898C1.05728 9.58442 0.824112 9.9926 0.665635 10.285C0.586333 10.4313 0.52554 10.549 0.483084 10.6332C0.46185 10.6753 0.445184 10.7092 0.433066 10.7341L0.41829 10.7647L0.41345 10.7748L0.411666 10.7786L0.410932 10.7801C0.41061 10.7808 0.410305 10.7815 1.93719 11.5L0.410932 10.7801C0.196775 11.2352 0.196147 11.7634 0.410305 12.2185L1.93719 11.5C0.410305 12.2185 0.409983 12.2178 0.410305 12.2185L0.411666 12.2214L0.41345 12.2252L0.41829 12.2353L0.433066 12.2659C0.445184 12.2908 0.46185 12.3247 0.483084 12.3668C0.52554 12.451 0.586333 12.5687 0.665635 12.715C0.824112 13.0074 1.05728 13.4156 1.36662 13.901C1.98341 14.8689 2.91348 16.1603 4.17158 17.4566C6.68194 20.043 10.6066 22.75 15.9997 22.75C21.3928 22.75 25.3174 20.043 27.8278 17.4566C29.0859 16.1603 30.016 14.8689 30.6328 13.901C30.9421 13.4156 31.1753 13.0074 31.3337 12.715C31.413 12.5687 31.4738 12.451 31.5163 12.3668C31.5375 12.3247 31.5542 12.2908 31.5663 12.2659L31.5811 12.2353L31.5859 12.2252L31.5884 12.2199C31.5888 12.2192 31.5891 12.2185 30.0622 11.5ZM30.0622 11.5L31.5884 12.2199C31.8026 11.7648 31.8026 11.2352 31.5884 10.7801L30.0622 11.5ZM3.46257 12.2217C3.46227 12.2223 3.46234 12.2222 3.46257 12.2217V12.2217ZM3.46268 10.7785C3.46245 10.778 3.46238 10.7779 3.46268 10.7785V10.7785Z" fill="#CFCFCF"/>
<path d="M16 14.3125C17.5533 14.3125 18.8125 13.0533 18.8125 11.5C18.8125 9.9467 17.5533 8.6875 16 8.6875C14.4467 8.6875 13.1875 9.9467 13.1875 11.5C13.1875 13.0533 14.4467 14.3125 16 14.3125Z" fill="#CFCFCF"/>
<path fill-rule="evenodd" clip-rule="evenodd" d="M16 10.375C15.3787 10.375 14.875 10.8787 14.875 11.5C14.875 12.1213 15.3787 12.625 16 12.625C16.6213 12.625 17.125 12.1213 17.125 11.5C17.125 10.8787 16.6213 10.375 16 10.375ZM11.5 11.5C11.5 9.01472 13.5147 7 16 7C18.4853 7 20.5 9.01472 20.5 11.5C20.5 13.9853 18.4853 16 16 16C13.5147 16 11.5 13.9853 11.5 11.5Z" fill="#CFCFCF"/>
</svg>
