<svg width="22" height="22" viewBox="0 0 22 22" fill="none" xmlns="http://www.w3.org/2000/svg">
<path d="M14.375 11C14.375 15.875 20.375 15.875 20.375 11C20.375 9.1458 19.8252 7.33324 18.795 5.79153C17.7649 4.24982 16.3007 3.04821 14.5877 2.33863C12.8746 1.62906 10.9896 1.44341 9.17103 1.80514C7.35246 2.16688 5.682 3.05976 4.37088 4.37088C3.05976 5.682 2.16688 7.35246 1.80514 9.17103C1.44341 10.9896 1.62906 12.8746 2.33863 14.5877C3.04821 16.3007 4.24982 17.7649 5.79153 18.795C7.33324 19.8252 9.1458 20.375 11 20.375C14.375 20.375 15.875 18.875 15.875 18.875" stroke="white" stroke-width="1.5" stroke-linecap="round" stroke-linejoin="round"/>
<path d="M11 14.375C12.864 14.375 14.375 12.864 14.375 11C14.375 9.13604 12.864 7.625 11 7.625C9.13604 7.625 7.625 9.13604 7.625 11C7.625 12.864 9.13604 14.375 11 14.375Z" stroke="white" stroke-width="1.5" stroke-linecap="round" stroke-linejoin="round"/>
</svg>
