<svg width="24" height="25" viewBox="0 0 24 25" fill="none" xmlns="http://www.w3.org/2000/svg">
<rect y="0.5" width="23" height="23" rx="11.5" fill="#4EA3E4"/>
<path fill-rule="evenodd" clip-rule="evenodd" d="M8.82788 11.5572C8.09229 11.5572 7.49597 12.1535 7.49597 12.8891C7.49597 13.6247 8.09229 14.221 8.82788 14.221C9.56348 14.221 10.1598 13.6247 10.1598 12.8891C10.1598 12.1535 9.56348 11.5572 8.82788 11.5572ZM6.16406 12.8891C6.16406 11.4179 7.3567 10.2253 8.82788 10.2253C10.2991 10.2253 11.4917 11.4179 11.4917 12.8891C11.4917 14.3603 10.2991 15.5529 8.82788 15.5529C7.3567 15.5529 6.16406 14.3603 6.16406 12.8891Z" fill="white"/>
<path fill-rule="evenodd" clip-rule="evenodd" d="M14.1599 7.11746C13.4243 7.11746 12.828 7.71378 12.828 8.44937C12.828 9.18497 13.4243 9.78128 14.1599 9.78128C14.8955 9.78128 15.4918 9.18497 15.4918 8.44937C15.4918 7.71378 14.8955 7.11746 14.1599 7.11746ZM11.4961 8.44937C11.4961 6.97819 12.6887 5.78555 14.1599 5.78555C15.6311 5.78555 16.8237 6.97819 16.8237 8.44937C16.8237 9.92056 15.6311 11.1132 14.1599 11.1132C12.6887 11.1132 11.4961 9.92056 11.4961 8.44937Z" fill="white"/>
<path fill-rule="evenodd" clip-rule="evenodd" d="M12.4053 11.8622C12.0648 12.2879 11.9408 12.8033 11.9408 13.1111C11.9408 13.4789 11.6426 13.777 11.2748 13.777C10.907 13.777 10.6089 13.4789 10.6089 13.1111C10.6089 12.5309 10.8179 11.7144 11.3653 11.0302C11.9352 10.3178 12.8477 9.78131 14.1606 9.78131C15.4736 9.78131 16.3861 10.3178 16.956 11.0302C17.5034 11.7144 17.7124 12.5309 17.7124 13.1111C17.7124 13.4789 17.4142 13.777 17.0465 13.777C16.6787 13.777 16.3805 13.4789 16.3805 13.1111C16.3805 12.8033 16.2565 12.2879 15.916 11.8622C15.598 11.4647 15.0676 11.1132 14.1606 11.1132C13.2537 11.1132 12.7233 11.4647 12.4053 11.8622ZM7.07769 16.3019C6.73716 16.7276 6.61316 17.243 6.61316 17.5508C6.61316 17.9186 6.315 18.2167 5.9472 18.2167C5.57941 18.2167 5.28125 17.9186 5.28125 17.5508C5.28125 16.9706 5.49023 16.1541 6.03764 15.4699C6.60756 14.7575 7.52009 14.221 8.83301 14.221C10.1459 14.221 11.0585 14.7575 11.6284 15.4699C12.1758 16.1541 12.3848 16.9706 12.3848 17.5508C12.3848 17.9186 12.0866 18.2167 11.7188 18.2167C11.351 18.2167 11.0529 17.9186 11.0529 17.5508C11.0529 17.243 10.9289 16.7276 10.5883 16.3019C10.2703 15.9044 9.73994 15.5529 8.83301 15.5529C7.92608 15.5529 7.39571 15.9044 7.07769 16.3019Z" fill="white"/>
</svg>
