<svg width="19" height="19" viewBox="0 0 19 19" fill="none" xmlns="http://www.w3.org/2000/svg">
<path d="M10.3923 10.4583L17.3984 17.3975L10.3923 10.4583ZM1.57401 6.75959C1.56487 6.07287 1.69225 5.39118 1.94873 4.75408C2.20521 4.11699 2.58569 3.53719 3.06807 3.04834C3.55046 2.5595 4.12515 2.17135 4.75878 1.90642C5.39241 1.64149 6.07235 1.50507 6.75913 1.50507C7.44591 1.50507 8.12585 1.64149 8.75948 1.90642C9.39311 2.17135 9.9678 2.5595 10.4502 3.04834C10.9326 3.53719 11.3131 4.11699 11.5695 4.75408C11.826 5.39118 11.9534 6.07287 11.9443 6.75959C11.9261 8.12283 11.3719 9.42409 10.4014 10.3817C9.43101 11.3393 8.12249 11.8762 6.75913 11.8762C5.39577 11.8762 4.08726 11.3393 3.11683 10.3817C2.1464 9.42409 1.59213 8.12283 1.57401 6.75959V6.75959Z" stroke="#999999" stroke-width="1.5" stroke-linecap="round" stroke-linejoin="round"/>
</svg>
