<svg width="24" height="24" viewBox="0 0 24 24" fill="none" xmlns="http://www.w3.org/2000/svg">
<path d="M12 14.625C13.4497 14.625 14.625 13.4497 14.625 12C14.625 10.5503 13.4497 9.375 12 9.375C10.5503 9.375 9.375 10.5503 9.375 12C9.375 13.4497 10.5503 14.625 12 14.625Z" stroke="white" stroke-width="1.5" stroke-linecap="round" stroke-linejoin="round"/>
<path d="M10.125 2.625L9.375 4.875L7.125 6.375L4.125 5.625L2.625 8.625L4.875 10.875V13.125L2.625 15.375L4.125 18.375L7.125 17.625L9.375 19.125L10.125 21.375H13.875L14.625 19.125L16.875 17.625L19.875 18.375L21.375 15.375L19.125 13.125V10.875L21.375 8.625L19.875 5.625L16.875 6.375L14.625 4.875L13.875 2.625H10.125Z" stroke="white" stroke-width="1.5" stroke-linecap="round" stroke-linejoin="round"/>
</svg>
