<svg width="31" height="30" viewBox="0 0 31 30" fill="none" xmlns="http://www.w3.org/2000/svg">
<path d="M30.9158 2.13435L27.1613 26.4801C27.1026 27.0668 26.7506 27.5948 26.2226 27.8881C25.9293 28.0054 25.636 28.1227 25.284 28.1227C25.0493 28.1227 24.8147 28.0641 24.58 27.9467L17.4229 24.9549L14.4311 29.4134C14.1964 29.824 13.7857 30 13.3751 30C12.7298 30 12.2018 29.472 12.2018 28.8267V23.1949C12.2018 22.7256 12.3191 22.3149 12.5538 22.0216L25.3427 5.59555L8.09529 21.1417L2.05284 18.6191C1.40753 18.3258 0.938214 17.7391 0.938214 16.9765C0.879549 16.1552 1.23154 15.5685 1.87685 15.2165L28.1586 0.257081C28.7452 -0.0949064 29.5665 -0.0949064 30.1532 0.315745C30.7398 0.726397 31.0331 1.43037 30.9158 2.13435Z" fill="#4EA3E4"/>
</svg>
