<svg width="43" height="25" viewBox="0 0 43 25" fill="none" xmlns="http://www.w3.org/2000/svg">
<path d="M42.1038 1.71875C42.3381 0.78125 42.1038 0 40.6975 0H36.0881C34.9163 0 34.3694 0.625 34.0569 1.32812C34.0569 1.32812 31.7131 7.03125 28.4319 10.7812C27.3381 11.7969 26.8694 12.1875 26.2444 12.1875C26.01 12.1875 25.5413 11.7969 25.5413 10.8594V1.71875C25.5413 0.546875 25.2288 0 24.2131 0H17.0256C16.2444 0 15.8538 0.546875 15.8538 1.09375C15.8538 2.1875 17.4944 2.42188 17.6506 5.54688V12.3438C17.6506 13.8281 17.4163 14.1406 16.7913 14.1406C15.2288 14.1406 11.4788 8.35938 9.21313 1.79688C8.74438 0.546875 8.27563 0 7.10376 0H2.49438C1.24438 0 0.931885 0.625 0.931885 1.32812C0.931885 2.57812 2.49438 8.59375 8.19751 16.6406C12.0256 22.1094 17.4163 25 22.26 25C25.1506 25 25.5413 24.375 25.5413 23.2812C25.5413 18.0469 25.3069 17.5 26.7131 17.5C27.4163 17.5 28.5881 17.8906 31.3225 20.5469C34.4475 23.6719 34.9944 25 36.7131 25H41.3225C42.6506 25 43.2756 24.375 42.885 23.0469C42.0256 20.3906 36.1663 14.7656 35.8538 14.375C35.1506 13.5156 35.385 13.125 35.8538 12.3438C35.8538 12.3438 41.4788 4.375 42.1038 1.71875Z" fill="#4EA3E4"/>
</svg>
