<svg width="260" height="38" viewBox="0 0 260 38" fill="none" xmlns="http://www.w3.org/2000/svg">
<path d="M70.8332 12.2079C72.3188 13.8433 72.9941 16.4327 72.9941 19.7036V32.5145H66.1064V20.9302C66.1064 17.7956 65.026 16.2964 62.8651 16.2964C61.6497 16.2964 60.7043 16.7053 60.029 17.6593C59.4888 18.6133 59.0837 19.8399 59.0837 21.6116V32.5145H52.196V10.0273H58.6785V12.4804C59.4888 11.5264 60.2991 10.845 61.3795 10.4361C62.46 9.89099 63.5404 9.7547 64.8909 9.7547C67.4569 9.61841 69.3476 10.5724 70.8332 12.2079Z" fill="#2F3943"/>
<path d="M97.5736 23.247H83.3931C83.6632 24.4736 84.2034 25.2913 85.0137 25.9728C85.824 26.6542 86.9045 26.9268 88.1199 26.9268C89.0653 26.9268 89.8756 26.7905 90.5509 26.5179C91.2262 26.2453 91.9014 25.7002 92.5767 25.0188L96.2231 29.3799C94.3324 31.8331 91.4963 33.0596 87.8498 33.0596C85.5539 33.0596 83.5282 32.5145 81.7725 31.5605C80.0168 30.6065 78.6663 29.2436 77.7209 27.4719C76.7755 25.7002 76.2353 23.6559 76.2353 21.4753C76.2353 19.2947 76.6405 17.2504 77.5858 15.4787C78.5312 13.707 79.7467 12.3441 81.3673 11.3901C82.9879 10.4361 84.8787 9.89099 86.9045 9.89099C88.7952 9.89099 90.6859 10.2998 92.1715 11.2539C93.6571 12.2079 95.0076 13.5707 95.953 15.3424C96.8984 17.1142 97.3035 19.1585 97.3035 21.6116C97.7087 21.339 97.7087 22.0205 97.5736 23.247ZM84.6086 16.2964C83.9333 16.9779 83.3931 17.9319 83.2581 19.1585H91.2262C91.0911 17.9319 90.5509 16.9779 89.8756 16.2964C89.2004 15.615 88.255 15.2062 87.1746 15.2062C86.2292 15.3424 85.2838 15.615 84.6086 16.2964Z" fill="#2F3943"/>
<path d="M124.044 32.5145L123.909 17.1142L115.806 27.4719L107.703 17.523V32.5145H101.085V3.48553H107.027L115.806 14.9336L124.584 3.48553H130.526L130.661 32.5145H124.044Z" fill="#2F3943"/>
<path d="M139.44 31.4242C137.819 30.4702 136.469 29.1073 135.523 27.3356C134.578 25.5639 134.038 23.5196 134.038 21.339C134.038 19.1584 134.578 17.1142 135.523 15.3424C136.469 13.5707 137.819 12.2079 139.44 11.2538C141.061 10.2998 142.951 9.7547 145.112 9.7547C147.273 9.7547 149.164 10.2998 150.784 11.2538C152.405 12.2079 153.755 13.5707 154.701 15.3424C155.646 17.1142 156.051 19.1584 156.051 21.339C156.051 23.5196 155.646 25.5639 154.701 27.3356C153.755 29.1073 152.405 30.4702 150.784 31.4242C149.164 32.3782 147.138 32.9234 145.112 32.9234C143.086 32.9234 141.196 32.3782 139.44 31.4242ZM148.083 25.155C148.894 24.201 149.299 22.8382 149.299 21.2027C149.299 19.5673 148.894 18.2044 148.083 17.2504C147.273 16.2964 146.328 15.8876 145.112 15.8876C143.897 15.8876 142.951 16.2964 142.141 17.2504C141.331 18.2044 140.925 19.431 140.925 21.2027C140.925 22.8382 141.331 24.201 142.141 25.155C142.951 26.109 143.897 26.5179 145.112 26.5179C146.328 26.6542 147.273 26.109 148.083 25.155Z" fill="#2F3943"/>
<path d="M190.625 12.2078C192.11 13.8433 192.786 16.4327 192.786 19.7036V32.5145H185.898V20.9302C185.898 19.2947 185.628 18.2044 185.088 17.3867C184.547 16.7053 183.872 16.2964 182.927 16.2964C181.846 16.2964 181.036 16.7053 180.496 17.523C179.821 18.3407 179.55 19.5673 179.55 21.339V32.5145H172.663V20.9302C172.663 17.7956 171.717 16.2964 169.692 16.2964C168.611 16.2964 167.801 16.7053 167.126 17.523C166.45 18.3407 166.18 19.5673 166.18 21.339V32.5145H159.293V10.0273H165.775V12.3441C166.45 11.3901 167.396 10.7087 168.341 10.2998C169.286 9.89098 170.367 9.6184 171.582 9.6184C172.933 9.6184 174.148 9.89097 175.229 10.4361C176.309 10.9813 177.255 11.9353 177.93 13.0256C178.74 11.9353 179.685 10.9813 180.901 10.4361C182.116 9.89097 183.332 9.48212 184.817 9.48212C187.248 9.6184 189.139 10.5724 190.625 12.2078Z" fill="#2F3943"/>
<path d="M217.23 23.247H203.05C203.32 24.4736 203.86 25.2913 204.67 25.9728C205.481 26.6542 206.561 26.9268 207.776 26.9268C208.722 26.9268 209.532 26.7905 210.207 26.5179C210.883 26.2453 211.558 25.7002 212.233 25.0188L215.88 29.3799C213.989 31.8331 211.153 33.0596 207.506 33.0596C205.21 33.0596 203.185 32.5145 201.429 31.5605C199.673 30.6065 198.323 29.2436 197.377 27.4719C196.432 25.7002 195.892 23.6559 195.892 21.4753C195.892 19.2947 196.297 17.2504 197.242 15.4787C198.188 13.707 199.403 12.3441 201.024 11.3901C202.644 10.4361 204.535 9.89099 206.561 9.89099C208.452 9.89099 210.342 10.2998 211.828 11.2539C213.449 12.2079 214.664 13.5707 215.609 15.3424C216.555 17.1142 216.96 19.1585 216.96 21.6116C217.365 21.339 217.365 22.0205 217.23 23.247ZM204.265 16.2964C203.59 16.9779 203.05 17.9319 202.915 19.1585H210.883C210.748 17.9319 210.207 16.9779 209.532 16.2964C208.857 15.615 207.911 15.2062 206.831 15.2062C205.886 15.3424 204.94 15.615 204.265 16.2964Z" fill="#2F3943"/>
<path d="M239.109 12.2079C240.594 13.8433 241.269 16.4327 241.269 19.7036V32.5145H234.382V20.9302C234.382 17.7956 233.301 16.2964 231.14 16.2964C229.925 16.2964 228.98 16.7053 228.304 17.6593C227.629 18.477 227.224 19.8399 227.224 21.6116V32.5145H220.336V10.0273H226.819V12.4804C227.629 11.5264 228.439 10.845 229.52 10.4361C230.6 9.89099 231.681 9.7547 233.031 9.7547C235.732 9.61841 237.623 10.5724 239.109 12.2079Z" fill="#2F3943"/>
<path d="M259.231 31.5605C258.691 31.9693 258.016 32.2419 257.071 32.5145C256.26 32.7871 255.315 32.7871 254.37 32.7871C251.804 32.7871 249.913 32.1056 248.427 30.6065C247.077 29.1073 246.401 27.063 246.401 24.201V16.7053H243.565V10.845H246.401V4.98468H253.289V10.845H257.746V16.7053H253.289V24.201C253.289 25.0188 253.424 25.5639 253.829 26.109C254.234 26.5179 254.64 26.7905 255.315 26.7905C256.125 26.7905 256.8 26.5179 257.476 26.109L259.231 31.5605Z" fill="#2F3943"/>
<path d="M28.8319 0.896088H0.876038V12.3441C0.876038 18.0682 5.46782 22.7019 11.14 22.8382C12.7607 31.1516 20.0535 37.4208 28.8319 37.4208C38.8258 37.4208 46.9289 29.2436 46.9289 19.1584C46.9289 9.07326 38.8258 0.896088 28.8319 0.896088Z" fill="#4EA3E4"/>
<path d="M28.8319 8.25555H7.89877V11.2538C7.89877 13.707 9.92456 15.7513 12.3555 15.7513H18.2978C17.8927 16.9779 17.6225 18.3407 17.6225 19.7036C17.6225 25.9728 22.6195 31.1516 28.967 31.1516C35.1794 31.1516 40.3114 26.109 40.3114 19.7036C40.3114 13.2981 35.0443 8.25555 28.8319 8.25555ZM28.8319 23.5196C26.6711 23.5196 24.9154 21.7479 24.9154 19.5673C24.9154 17.3867 26.6711 15.615 28.8319 15.615C30.9927 15.615 32.7484 17.3867 32.7484 19.5673C32.7484 21.7479 30.9927 23.5196 28.8319 23.5196Z" fill="#FAF9FB"/>
<path d="M28.8319 23.5196V31.0153C22.6195 31.0153 17.4875 25.9727 17.4875 19.5673C17.4875 18.2044 17.7576 16.8416 18.1628 15.615H28.8319C26.6711 15.615 24.9154 17.3867 24.9154 19.5673C24.9154 21.7479 26.6711 23.5196 28.8319 23.5196Z" fill="url(#paint0_linear_135_2)"/>
<defs>
<linearGradient id="paint0_linear_135_2" x1="23.1917" y1="10.3759" x2="23.1917" y2="23.2061" gradientUnits="userSpaceOnUse">
<stop stop-color="#89BBEC"/>
<stop offset="1" stop-color="#FAF9FB"/>
</linearGradient>
</defs>
</svg>
